<svg id="Capa_1" data-name="Capa 1" xmlns="http://www.w3.org/2000/svg" viewBox="0 0 31.5 31.48"><defs><style>.cls-1{fill:#06065b}.cls-2{fill:#d6d6d6}</style></defs><title>additional-icon</title><rect class="cls-1" x="5.38" y="13.3" width="20.76" height="4.88" rx="2.44" ry="2.44"/><circle class="cls-1" cx="60.86" cy="1948.38" r="2.44" transform="rotate(-71.4 -1310.724 1007.507)"/><path class="cls-2" d="M55.4 1967.72a3.12 3.12 0 0 1-1-.16 3.13 3.13 0 0 1-2-4l3.11-9.25a3.13 3.13 0 0 1 5.93 2l-3.11 9.25a3.14 3.14 0 0 1-2.93 2.16zm-.56-1.47a1.75 1.75 0 0 0 2.22-1.1l3.11-9.25a1.75 1.75 0 0 0-3.32-1.12l-3.11 9.22a1.75 1.75 0 0 0 1.1 2.22z" transform="translate(-42.38 -1940.72)"/><rect class="cls-1" x="49.64" y="1957.52" width="14.64" height="4.88" rx="2.44" ry="2.44" transform="rotate(-71.4 -1314.629 1019.093)"/><path class="cls-1" d="M71 1947.39a16.07 16.07 0 0 0-7.57-5.76 15.75 15.75 0 0 0-11.87 29.15 16.07 16.07 0 0 0 9.75 1.11A15.83 15.83 0 0 0 73.67 1959a17.29 17.29 0 0 0 .21-2.55 15.75 15.75 0 0 0-2.88-9.06zm.26 10.16c0 .2 0 .4-.06.59V1958.5a14.34 14.34 0 0 1-.51 2.09c-.11.33-.23.65-.35 1v.06l-.09.21-.25.51a14.46 14.46 0 0 1-1.11 1.84l-.23.32-.08.1-.18.22q-.34.41-.72.8t-.69.67l-.43.37-.17.14-.16.12a14.61 14.61 0 0 1-1.74 1.12q-.45.25-.92.46l-.29.13-.46.18a14.36 14.36 0 0 1-2.12.59l-.52.09h-.37c-.38 0-.75.07-1.13.09a16.43 16.43 0 0 1-2.22-.09h-.36l-.46-.08q-.57-.11-1.13-.27t-1-.32l-.43-.16-.31-.14a14.44 14.44 0 0 1-1.84-1c-.26-.17-.52-.35-.77-.54l-.28-.23-.47-.41a14.55 14.55 0 0 1-1.44-1.5l-.23-.28-.22-.31q-.33-.46-.62-.95t-.49-.89l-.22-.46-.12-.26v-.11a16 16 0 0 1-.63-2q-.12-.51-.21-1v-.36c0-.2 0-.4-.06-.59a14.67 14.67 0 0 1 0-2.23c0-.18 0-.36.05-.53v-.3q.09-.55.22-1.09a14.58 14.58 0 0 1 .65-2l.13-.29.25-.51q.24-.48.52-.94t.56-.85l.26-.35.26-.32a14.55 14.55 0 0 1 1.49-1.54l.34-.29.22-.18.09-.07c.26-.19.52-.38.79-.56a14.44 14.44 0 0 1 1.89-1l.21-.09H53l.48-.19q.54-.2 1.1-.35t1-.23l.52-.1h.36a16.4 16.4 0 0 1 2.28-.08c.36 0 .72 0 1.07.08h.24l.64.11a14.36 14.36 0 0 1 2.06.58l.46.18.29.13q.52.24 1 .51t.87.53l.37.25.23.16.18.13.14.11.17.14.38.33q.4.36.77.74t.68.76l.14.17.11.14.1.14.2.28a14.46 14.46 0 0 1 1 1.75l.25.51.13.29c.13.33.26.67.36 1a14.38 14.38 0 0 1 .5 2.09v.3c0 .18 0 .36.05.53v1.14c0 .38.16.54.13.9z" transform="translate(-42.38 -1940.72)"/></svg>