<svg id="Capa_1" data-name="Capa 1" xmlns="http://www.w3.org/2000/svg" viewBox="0 0 16.84 31.2"><defs><style>.cls-1{fill:#06065b}</style></defs><title>dollar-icon</title><path class="cls-1" d="M53.66 1686.18v8.16a.91.91 0 0 0 .73.89l.31.07a10.94 10.94 0 0 1 3.32 1.25 6.1 6.1 0 0 1 3.12 4.82 8.33 8.33 0 0 1-.62 4.29 6.1 6.1 0 0 1-3.53 3.27 10.6 10.6 0 0 1-3.18.65h-.15v2.48a.91.91 0 0 1-.91.91h-.18a.91.91 0 0 1-.91-.91v-1.69a.91.91 0 0 0-.79-.9h-.15a8.13 8.13 0 0 1-3.88-1.51 6 6 0 0 1-2.09-3.09 9.31 9.31 0 0 1-.39-2.41.92.92 0 0 1 .94-1h1.71v.24a7.8 7.8 0 0 0 .25 2.18 3.53 3.53 0 0 0 2.35 2.5 8 8 0 0 0 2 .42v-.17-8.54a1.16 1.16 0 0 0-.8-1.1 17.1 17.1 0 0 1-2.39-1 6.26 6.26 0 0 1-2.84-2.68 6.76 6.76 0 0 1-.71-2.59 7.65 7.65 0 0 1 .28-3 5.68 5.68 0 0 1 3-3.46 8.66 8.66 0 0 1 3.08-.83h.39v-.83a.91.91 0 0 1 .91-.91h.18a.91.91 0 0 1 .91.91.91.91 0 0 0 .79.9h.23a7.46 7.46 0 0 1 3.4 1.29 5.68 5.68 0 0 1 2.2 3.38 7.63 7.63 0 0 1 .18 1.1.92.92 0 0 1-.91 1h-.81a.91.91 0 0 1-.91-.83v-.14a3.2 3.2 0 0 0-2.43-2.93c-.51-.15-1-.21-1.57-.31h-.13zm0 12.76v6.95a.91.91 0 0 0 1 .9 6.16 6.16 0 0 0 1.75-.54 3.44 3.44 0 0 0 1.89-2.25 6.69 6.69 0 0 0 .22-2.12 3.53 3.53 0 0 0-1.79-3 7.46 7.46 0 0 0-1.89-.8.91.91 0 0 0-1.18.87zm-2-12.76h-.09a7.07 7.07 0 0 0-1.75.38 3.17 3.17 0 0 0-2.19 2.45 5.43 5.43 0 0 0-.08 1.55 4 4 0 0 0 2.07 3.15 8.28 8.28 0 0 0 .76.35.91.91 0 0 0 1.26-.84v-7z" transform="translate(-44.35 -1681.77)"/></svg>