<svg id="Capa_1" data-name="Capa 1" xmlns="http://www.w3.org/2000/svg" viewBox="0 0 35.94 69.36"><defs><style>.cls-1{fill:#d0a72a}</style></defs><title>facebook-icon</title><path class="cls-1" d="M553.62 514.44h-12.8v-8.06-1.12q.09-.44.22-.86c0-.09.13-.38.21-.58l.2-.41q.23-.43.5-.84l.13-.18c.18-.21.37-.42.56-.61s.42-.39.64-.59h.07a12 12 0 0 1 1.11-.71h.18l.52-.18q.43-.13.86-.23l.55-.11h6.95a4.34 4.34 0 0 0 0-8.67H547a15.16 15.16 0 0 0-14.93 14.9v8.33h-5.8a4.34 4.34 0 1 0 0 8.67h5.8v33.1a4.34 4.34 0 1 0 8.67 0v-33.1h12.79a4.34 4.34 0 0 0 .09-8.75z" transform="translate(-522.02 -491.2)"/></svg>