<svg id="Capa_1" data-name="Capa 1" xmlns="http://www.w3.org/2000/svg" viewBox="0 0 31.31 31.29"><defs><style>.cls-1{fill:#06065b}</style></defs><title>important-icon</title><path class="cls-1" d="M56.84 2300.94V2317a1.15 1.15 0 1 0 2.29 0v-16.1a1.15 1.15 0 1 0-2.29 0z" transform="translate(-42.33 -2295.75)"/><circle class="cls-1" cx="15.66" cy="25.7" r="1.57"/><path class="cls-1" d="M71.35 2311.4v1.12c0 .19 0 .39-.06.58 0 0 0 .23 0 0 0 .12 0 .24-.05.36a14.42 14.42 0 0 1-.53 2.15 13.12 13.12 0 0 1-1.83 3.59l-.3.4a1.91 1.91 0 0 0-.19.24q-.35.42-.73.82t-.72.69l-.42.36-.19.16-.08.07a14.5 14.5 0 0 1-1.81 1.18q-.46.26-.95.48l-.18.08a.23.23 0 0 1-.1 0l-.57.22a14.41 14.41 0 0 1-2.08.58l-.51.09h-.36c-.39 0-.77.07-1.16.09a15.83 15.83 0 0 1-2.24-.09h-.32l-.51-.09q-.56-.11-1.1-.26t-1-.33l-.52-.2s-.2-.09 0 0l-.32-.14a14.49 14.49 0 0 1-1.89-1.05q-.42-.28-.82-.58c.18.13 0 0 0 0l-.19-.16-.45-.39a14.6 14.6 0 0 1-1.45-1.51l-.19-.23s-.13-.17 0 0l-.3-.4q-.32-.45-.6-.92t-.49-.88l-.24-.5-.1-.23a.29.29 0 0 1 0-.1 15.15 15.15 0 0 1-.69-2.14q-.12-.51-.2-1v-.21a.26.26 0 0 1 0-.11c0-.21 0-.42-.06-.63a12.66 12.66 0 0 1 .33-4.21 15.18 15.18 0 0 1 .66-2 .23.23 0 0 1 0-.1l.08-.18.24-.5q.25-.49.54-1t.58-.88l.3-.4s-.13.16 0 0l.25-.31a14.6 14.6 0 0 1 1.46-1.5l.38-.33a1.91 1.91 0 0 0 .24-.19q.44-.33.9-.63a14.49 14.49 0 0 1 1.85-1l.28-.12.47-.18q.53-.19 1.07-.35t1.05-.25l.51-.09H56.46a14.7 14.7 0 0 1 2.29-.08c.35 0 .7 0 1.06.08s.06 0 0 0h.31l.61.11a12.48 12.48 0 0 1 3.82 1.4 14.5 14.5 0 0 1 1.76 1.15l.24.19.42.36q.41.37.79.76t.7.78a2 2 0 0 0 .19.24l.35.49a14.51 14.51 0 0 1 1.08 1.81l.22.46.1.23c.08.18-.1-.25 0 .05s.27.7.38 1.05a14.46 14.46 0 0 1 .5 2.11v.31s0-.22 0 0 0 .35.05.53v1.17a1.15 1.15 0 1 0 2.29 0 15.65 15.65 0 0 0-2.89-9.05 16 16 0 0 0-7.46-5.68 15.65 15.65 0 0 0-11.84 29 16 16 0 0 0 9.67 1.11 15.74 15.74 0 0 0 12.31-12.81 17 17 0 0 0 .21-2.52 1.15 1.15 0 1 0-2.27-.14z" transform="translate(-42.33 -2295.75)"/></svg>