<svg id="Capa_1" data-name="Capa 1" xmlns="http://www.w3.org/2000/svg" viewBox="0 0 31.33 22.62"><defs><style>.cls-1{fill:#06065b}</style></defs><title>other-icon</title><path class="cls-1" d="M44 2140.89h2.7a.68.68 0 0 0 0-1.37h-2a13.34 13.34 0 0 1 26.6 0H51.66a.68.68 0 0 0 0 1.37H72a.69.69 0 0 0 .68-.68 14.87 14.87 0 0 0-9.75-13.54 14.27 14.27 0 0 0-4.27-.83v-2.95h2.1a.68.68 0 0 0 0-1.37H55a.68.68 0 0 0 0 1.37h2.28v3a14.69 14.69 0 0 0-14 14.36.69.69 0 0 0 .72.64zM73 2142.78H43a.68.68 0 0 0 0 1.37h30a.68.68 0 0 0 0-1.37zM69.26 2122v6.45c0 .68 1.34.68 1.34 0V2122c0-.68-1.34-.68-1.34 0z" transform="translate(-42.33 -2121.52)"/><path class="cls-1" d="M73.16 2124.59h-6.45c-.68 0-.68 1.34 0 1.34h6.45c.68 0 .68-1.34 0-1.34z" transform="translate(-42.33 -2121.52)"/></svg>