<svg id="Capa_1" data-name="Capa 1" xmlns="http://www.w3.org/2000/svg" viewBox="0 0 85.87 69.09"><defs><style>.cls-1{fill:#d0a72a}</style></defs><title>twitter</title><path class="cls-1" d="M165.68 541.31l-21.34 2.09-3.05.3c-1.14.11-2.26 1.39-1.45 2.53A33.88 33.88 0 0 0 158.51 559c9.43 2.59 19.52 1.32 28.54-2.17s16.92-8.6 22.43-16.49a43.49 43.49 0 0 0 7.13-18.15 39.52 39.52 0 0 0 .5-10.28l-.23.85 8.35-15.52a1.69 1.69 0 0 0-1.45-2.53l-16.11 1.49.85.23c-6.83-3.29-15.66-5.79-22.48-1.09-4.06 2.79-6.51 7.33-7.73 12a23.09 23.09 0 0 0-.66 3.51l2.53-1.45-24.61-15.71-3.44-2.2a1.7 1.7 0 0 0-2 .26 24 24 0 0 0-5.05 8 31.88 31.88 0 0 0-.66 21.32 54.55 54.55 0 0 0 9.18 17.14 1.74 1.74 0 0 0 2.3.6 1.69 1.69 0 0 0 .6-2.3c-5.74-7.53-10.5-16.52-10.25-26.24a25.49 25.49 0 0 1 4.62-14.19l.37-.51.15-.19c.24-.32-.21.26 0 0s.39-.48.59-.71.36-.41.55-.59l-2 .26L175 510.16l3.44 2.2a1.7 1.7 0 0 0 2.53-1.45v.06c.07-.33.1-.67.17-1a26.2 26.2 0 0 1 .86-3.3 17.44 17.44 0 0 1 4.74-7.61 12 12 0 0 1 4.4-2.41 15.13 15.13 0 0 1 6.57-.3 27.71 27.71 0 0 1 4.43 1.11q1.16.39 2.3.85a24.25 24.25 0 0 0 2.76 1.23 4 4 0 0 0 1.39 0l2.6-.24 12.58-1.16-1.45-2.53-8.06 15a5.27 5.27 0 0 0-.43 3.12v3q0 1-.13 1.93 0 .53-.1 1.06l-.06.51c0 .33 0 .23-.05.42a40.13 40.13 0 0 1-9.67 21.54 43.53 43.53 0 0 1-14.05 9.94A50.22 50.22 0 0 1 171 557c-9.79.47-19.74-2.78-26.41-10.17a26.11 26.11 0 0 1-1.88-2.33l-1.45 2.53 21.37-2.03 3.05-.3a1.73 1.73 0 0 0 1.68-1.68 1.69 1.69 0 0 0-1.68-1.68z" transform="translate(-139.56 -491.33)"/></svg>