<svg id="Capa_1" data-name="Capa 1" xmlns="http://www.w3.org/2000/svg" viewBox="0 0 31.5 31.48"><defs><style>.cls-1{fill:#06065b;}.cls-2{fill:#d6d6d6;}</style></defs><title>additional-icon</title><rect class="cls-1" x="5.38" y="13.3" width="20.76" height="4.88" rx="2.44" ry="2.44"/><circle class="cls-1" cx="60.86" cy="1948.38" r="2.44" transform="translate(-1847.54 -556.11) rotate(-71.4)"/><path class="cls-2" d="M55.4,1967.72a3.12,3.12,0,0,1-1-.16h0a3.13,3.13,0,0,1-2-4l3.11-9.25a3.13,3.13,0,0,1,5.93,2l-3.11,9.25A3.14,3.14,0,0,1,55.4,1967.72Zm-0.56-1.47a1.75,1.75,0,0,0,2.22-1.1l3.11-9.25a1.75,1.75,0,0,0-3.32-1.12L53.74,1964a1.75,1.75,0,0,0,1.1,2.22h0Z" transform="translate(-42.38 -1940.72)"/><rect class="cls-1" x="49.64" y="1957.52" width="14.64" height="4.88" rx="2.44" ry="2.44" transform="translate(-1861.18 -551.92) rotate(-71.4)"/><path class="cls-1" d="M71,1947.39a16.07,16.07,0,0,0-7.57-5.76,15.75,15.75,0,0,0-11.87,29.15,16.07,16.07,0,0,0,9.75,1.11A15.83,15.83,0,0,0,73.67,1959a17.29,17.29,0,0,0,.21-2.55A15.75,15.75,0,0,0,71,1947.39Zm0.26,10.16c0,0.2,0,.4-0.06.59v0.08l0,0.28a14.34,14.34,0,0,1-.51,2.09c-0.11.33-.23,0.65-0.35,1v0.06l-0.09.21-0.25.51a14.46,14.46,0,0,1-1.11,1.84l-0.23.32-0.08.1-0.18.22q-0.34.41-.72,0.8t-0.69.67l-0.43.37-0.17.14-0.16.12a14.61,14.61,0,0,1-1.74,1.12q-0.45.25-.92,0.46l-0.29.13-0.46.18a14.36,14.36,0,0,1-2.12.59l-0.52.09-0.25,0H59.81c-0.38,0-.75.07-1.13,0.09a16.43,16.43,0,0,1-2.22-.09H56.39l-0.29,0-0.46-.08q-0.57-.11-1.13-0.27t-1-.32l-0.43-.16,0,0h0l-0.31-.14a14.44,14.44,0,0,1-1.84-1c-0.26-.17-0.52-0.35-0.77-0.54l-0.28-.23-0.47-.41a14.55,14.55,0,0,1-1.44-1.5l-0.23-.28-0.22-.31q-0.33-.46-0.62-0.95t-0.49-.89l-0.22-.46-0.12-.26,0-.05,0-.06a16,16,0,0,1-.63-2q-0.12-.51-0.21-1l0-.29v-0.07c0-.2,0-0.4-0.06-0.59a14.67,14.67,0,0,1,0-2.23c0-.18,0-0.36.05-0.53v-0.05l0-.25q0.09-.55.22-1.09a14.58,14.58,0,0,1,.65-2l0.13-.29,0.25-.51q0.24-.48.52-0.94t0.56-.85l0.26-.35,0.26-.32a14.55,14.55,0,0,1,1.49-1.54l0.34-.29,0.22-.18,0.09-.07c0.26-.19.52-0.38,0.79-0.56a14.44,14.44,0,0,1,1.89-1l0.21-.09H53l0.48-.19q0.54-.2,1.1-0.35t1-.23l0.52-.1,0.23,0h0.13a16.4,16.4,0,0,1,2.28-.08c0.36,0,.72,0,1.07.08H59.9l0.15,0,0.64,0.11a14.36,14.36,0,0,1,2.06.58l0.46,0.18,0.29,0.13q0.52,0.24,1,.51t0.87,0.53l0.37,0.25,0.23,0.16,0.18,0.13,0.14,0.11,0.17,0.14,0.38,0.33q0.4,0.36.77,0.74t0.68,0.76l0.14,0.17,0.11,0.14,0.1,0.14,0.2,0.28a14.46,14.46,0,0,1,1,1.75l0.25,0.51,0.13,0.29c0.13,0.33.26,0.67,0.36,1a14.38,14.38,0,0,1,.5,2.09l0,0.25v0.05c0,0.18,0,.36.05,0.53,0,0.38,0,.76,0,1.14S71.29,1957.19,71.26,1957.55Z" transform="translate(-42.38 -1940.72)"/></svg>