<svg id="Capa_1" data-name="Capa 1" xmlns="http://www.w3.org/2000/svg" viewBox="0 0 27.8 31.89"><defs><style>.cls-1{fill:#06065b;}</style></defs><title>booking-icon</title><path class="cls-1" d="M69.55,1307.8a7.57,7.57,0,0,0-6.55-4.36c-1,0-2,0-3.07,0-3.25,0-6.51,0-9.76,0a7.66,7.66,0,0,0-7.72,7.84c0,3.16,0,6.31,0,9.47v5.17a20.73,20.73,0,0,0,.1,3,7.57,7.57,0,0,0,5.06,6,12.21,12.21,0,0,0,4,.38H62.91A7.58,7.58,0,0,0,69.5,1331a9.6,9.6,0,0,0,.75-4.22V1312A9.77,9.77,0,0,0,69.55,1307.8Zm-3.73,23.58a4.81,4.81,0,0,1-3.08,1.14H50.59a5.27,5.27,0,0,1-3.89-1.3c-2-1.88-1.47-4.9-1.47-7.36v-10.32c0-.85,0-1.7,0-2.55a4.79,4.79,0,0,1,3-4.46,8.83,8.83,0,0,1,3.26-.32h9.83a8,8,0,0,1,3.31.39,4.81,4.81,0,0,1,2.83,4.41c0,0.91,0,1.82,0,2.73V1324C67.47,1326.52,68,1329.55,65.82,1331.38Z" transform="translate(-42.45 -1303.42)"/><path class="cls-1" d="M62.78,1308.71H49.92a1.39,1.39,0,0,0,0,2.78H62.78A1.39,1.39,0,0,0,62.78,1308.71Z" transform="translate(-42.45 -1303.42)"/><path class="cls-1" d="M62.78,1318H49.92a1.39,1.39,0,0,0,0,2.78H62.78A1.39,1.39,0,0,0,62.78,1318Z" transform="translate(-42.45 -1303.42)"/><path class="cls-1" d="M56.35,1325.39a1.39,1.39,0,0,0,0-2.78H49.92a1.39,1.39,0,0,0,0,2.78h6.43Z" transform="translate(-42.45 -1303.42)"/><path class="cls-1" d="M56.35,1316.12a1.39,1.39,0,0,0,0-2.78H49.92a1.39,1.39,0,0,0,0,2.78h6.43Z" transform="translate(-42.45 -1303.42)"/><path class="cls-1" d="M62.78,1327.24H49.92a1.39,1.39,0,0,0,0,2.78H62.78A1.39,1.39,0,0,0,62.78,1327.24Z" transform="translate(-42.45 -1303.42)"/></svg>