<svg id="Capa_1" data-name="Capa 1" xmlns="http://www.w3.org/2000/svg" viewBox="0 0 35.94 69.36"><defs><style>.cls-1{fill:#d0a72a;}</style></defs><title>facebook-icon</title><path class="cls-1" d="M553.62,514.44H540.82v-8.06c0-.3,0-0.61,0-0.91l0-.21q0.09-.44.22-0.86c0-.09.13-0.38,0.21-0.58l0.2-.41q0.23-.43.5-0.84l0.13-.18c0.18-.21.37-0.42,0.56-0.61s0.42-.39.64-0.59h0l0.07,0a12,12,0,0,1,1.11-.71l0.18,0,0.52-.18q0.43-.13.86-0.23l0.55-.11,0.07,0,0.6,0h6.28a4.34,4.34,0,0,0,0-8.67h-6.52a15.16,15.16,0,0,0-14.93,14.9c0,0.09,0,.18,0,0.27v8.06h-5.8a4.34,4.34,0,1,0,0,8.67h5.8v33.1a4.34,4.34,0,1,0,8.67,0v-33.1h12.79A4.34,4.34,0,0,0,553.62,514.44Z" transform="translate(-522.02 -491.2)"/></svg>