<svg id="Capa_1" data-name="Capa 1" xmlns="http://www.w3.org/2000/svg" viewBox="0 0 31.31 31.29"><defs><style>.cls-1{fill:#06065b;}</style></defs><title>important-icon</title><path class="cls-1" d="M56.84,2300.94V2317a1.15,1.15,0,1,0,2.29,0v-16.1a1.15,1.15,0,1,0-2.29,0h0Z" transform="translate(-42.33 -2295.75)"/><circle class="cls-1" cx="15.66" cy="25.7" r="1.57"/><path class="cls-1" d="M71.35,2311.4c0,0.37,0,.75,0,1.12,0,0.19,0,.39-0.06.58,0,0,0,.23,0,0,0,0.12,0,.24-0.05.36a14.42,14.42,0,0,1-.53,2.15,13.12,13.12,0,0,1-1.83,3.59l-0.3.4a1.91,1.91,0,0,0-.19.24q-0.35.42-.73,0.82t-0.72.69l-0.42.36-0.19.16-0.08.07a14.5,14.5,0,0,1-1.81,1.18q-0.46.26-.95,0.48l-0.18.08a0.23,0.23,0,0,1-.1,0l-0.57.22a14.41,14.41,0,0,1-2.08.58l-0.51.09-0.26,0H59.69c-0.39,0-.77.07-1.16,0.09a15.83,15.83,0,0,1-2.24-.09H56.18l-0.21,0-0.51-.09q-0.56-.11-1.1-0.26t-1-.33l-0.52-.2s-0.2-.09,0,0l-0.32-.14a14.49,14.49,0,0,1-1.89-1.05q-0.42-.28-0.82-0.58c0.18,0.13,0,0,0,0l-0.19-.16-0.45-.39a14.6,14.6,0,0,1-1.45-1.51l-0.19-.23s-0.13-.17,0,0l-0.3-.4q-0.32-.45-0.6-0.92t-0.49-.88l-0.24-.5-0.1-.23a0.29,0.29,0,0,1,0-.1,15.15,15.15,0,0,1-.69-2.14q-0.12-.51-0.2-1l0-.21a0.26,0.26,0,0,1,0-.11c0-.21,0-0.42-0.06-0.63a12.66,12.66,0,0,1,.33-4.21,15.18,15.18,0,0,1,.66-2,0.23,0.23,0,0,1,0-.1l0.08-.18,0.24-.5q0.25-.49.54-1t0.58-.88l0.3-.4s-0.13.16,0,0l0.25-.31a14.6,14.6,0,0,1,1.46-1.5l0.38-.33a1.91,1.91,0,0,0,.24-0.19q0.44-.33.9-0.63a14.49,14.49,0,0,1,1.85-1l0.28-.12h0l0.47-.18q0.53-.19,1.07-0.35t1.05-.25l0.51-.09,0.26,0h0l0.16,0a14.7,14.7,0,0,1,2.29-.08c0.35,0,.7,0,1.06.08s0.06,0,0,0l0.31,0,0.61,0.11a12.48,12.48,0,0,1,3.82,1.4,14.5,14.5,0,0,1,1.76,1.15l0.24,0.19,0.42,0.36q0.41,0.37.79,0.76t0.7,0.78a2,2,0,0,0,.19.24l0.35,0.49a14.51,14.51,0,0,1,1.08,1.81l0.22,0.46,0.1,0.23c0.08,0.18-.1-0.25,0,0.05s0.27,0.7.38,1.05a14.46,14.46,0,0,1,.5,2.11c0,0.1,0,.21,0,0.31,0,0,0-.22,0,0s0,0.35.05,0.53c0,0.39,0,.78,0,1.17a1.15,1.15,0,1,0,2.29,0,15.65,15.65,0,0,0-2.89-9.05,16,16,0,0,0-7.46-5.68,15.65,15.65,0,0,0-11.84,29,16,16,0,0,0,9.67,1.11,15.74,15.74,0,0,0,12.31-12.81,17,17,0,0,0,.21-2.52A1.15,1.15,0,1,0,71.35,2311.4Z" transform="translate(-42.33 -2295.75)"/></svg>