<svg id="Capa_1" data-name="Capa 1" xmlns="http://www.w3.org/2000/svg" viewBox="0 0 68.93 68.61"><defs><style>.cls-1,.cls-2{fill:#d0a72a;stroke-miterlimit:10;}.cls-1{stroke:#d0a72a;}.cls-2{stroke:#c9a027;}</style></defs><title>instagram-icon</title><path class="cls-1" d="M863.51,525.82c0.16-5.22.23-10.49,0.5-15.75,0.48-9.2,6.45-15.95,15.54-17.35a70.48,70.48,0,0,1,10.62-.65c7.72,0,15.44,0,23.15.3,8.32,0.31,14.82,5.29,16.92,13A38.25,38.25,0,0,1,931.4,515c0.08,8.78,0,17.57-.25,26.34-0.36,10.51-7.61,17.86-18.09,18.15q-15.48.42-31,0c-10.34-.28-17.48-7.48-18.08-17.8C863.69,536.42,863.66,531.14,863.51,525.82Zm33.86,28c5.16-.15,10.18-0.24,15.2-0.45a13.72,13.72,0,0,0,7.08-2.12c3.76-2.46,5.33-6.21,5.4-10.46,0.15-10,.19-19.93,0-29.89-0.15-7.34-4.87-12.22-12.2-12.42q-15.24-.41-30.5,0c-7.32.19-11.79,4.95-12.22,12.28-0.22,3.71-.34,7.43-0.33,11.14,0,6.37.16,12.74,0.33,19.11a13.32,13.32,0,0,0,1.85,6.54c2.33,3.91,6,5.54,10.35,5.79C887.36,553.67,892.43,553.72,897.37,553.86Z" transform="translate(-863 -491.57)"/><path class="cls-1" d="M898,543.35a17.82,17.82,0,1,1,17.86-17.82A17.76,17.76,0,0,1,898,543.35ZM898,537a11.51,11.51,0,1,0-11.55-11.51A11.45,11.45,0,0,0,898,537Z" transform="translate(-863 -491.57)"/><path class="cls-2" d="M915.81,503.79a4,4,0,0,1,3.93,4.13,4.08,4.08,0,0,1-4.21,4,4.12,4.12,0,0,1-3.95-4.17A4,4,0,0,1,915.81,503.79Z" transform="translate(-863 -491.57)"/></svg>